<svg width="68" height="63" viewBox="0 0 68 63" fill="none" xmlns="http://www.w3.org/2000/svg">
<path fill-rule="evenodd" clip-rule="evenodd" d="M11.2396 0.0495192L1.43843 3.94955H1.44263C1.30984 4.00219 1.19627 4.09427 1.11718 4.21345C1.03809 4.33263 0.997248 4.4732 1.00014 4.61631C1.00304 4.75941 1.04953 4.89821 1.13338 5.01408C1.21722 5.12994 1.33442 5.21734 1.46924 5.26453L11.2704 8.73092C11.3449 8.75781 11.4236 8.77158 11.5028 8.77162C11.582 8.77133 11.6606 8.75757 11.7352 8.73092L19.8996 5.84133V10.0936C19.8996 10.3728 20.0102 10.6405 20.2072 10.8379C20.4041 11.0353 20.6712 11.1462 20.9497 11.1462C21.2282 11.1462 21.4953 11.0353 21.6923 10.8379C21.8892 10.6405 21.9999 10.3728 21.9999 10.0936V4.95298C21.9932 4.88141 21.9787 4.8108 21.9565 4.74247C21.9605 4.72442 21.9687 4.70758 21.9768 4.69074C21.9884 4.667 21.9999 4.64326 21.9999 4.61617C22.0027 4.47309 21.9619 4.33255 21.8828 4.2134C21.8037 4.09425 21.6902 4.00219 21.5574 3.94955L11.7563 0.0495192C11.5903 -0.0165064 11.4055 -0.0165064 11.2396 0.0495192Z" fill="#6E41E2"/>
<path d="M12.0898 33.3906C10.3711 33.3906 8.83464 33.1237 7.48047 32.5898C6.1263 32.043 4.98047 31.2943 4.04297 30.3438C3.11849 29.3932 2.40885 28.2995 1.91406 27.0625C1.43229 25.8255 1.19141 24.5169 1.19141 23.1367V22.3945C1.19141 20.8451 1.40625 19.4128 1.83594 18.0977C2.26562 16.7695 2.90365 15.6107 3.75 14.6211C4.59635 13.6315 5.65755 12.8633 6.93359 12.3164C8.20964 11.7565 9.69401 11.4766 11.3867 11.4766C12.8841 11.4766 14.2253 11.7174 15.4102 12.1992C16.5951 12.681 17.5977 13.3711 18.418 14.2695C19.2513 15.168 19.8828 16.2552 20.3125 17.5312C20.7552 18.8073 20.9766 20.2396 20.9766 21.8281V24.5039H3.71094V20.3828H14.5508V19.875C14.5638 19.1719 14.4401 18.5729 14.1797 18.0781C13.9323 17.5833 13.5677 17.2057 13.0859 16.9453C12.6042 16.6849 12.0182 16.5547 11.3281 16.5547C10.612 16.5547 10.0195 16.7109 9.55078 17.0234C9.09505 17.3359 8.73698 17.7656 8.47656 18.3125C8.22917 18.8464 8.05339 19.4648 7.94922 20.168C7.84505 20.8711 7.79297 21.6133 7.79297 22.3945V23.1367C7.79297 23.918 7.89714 24.6276 8.10547 25.2656C8.32682 25.9036 8.63932 26.4505 9.04297 26.9062C9.45964 27.349 9.95443 27.694 10.5273 27.9414C11.1133 28.1888 11.7773 28.3125 12.5195 28.3125C13.418 28.3125 14.3034 28.1432 15.1758 27.8047C16.0482 27.4661 16.7969 26.9062 17.4219 26.125L20.4102 29.6797C19.9805 30.2917 19.3685 30.8841 18.5742 31.457C17.793 32.0299 16.8555 32.4987 15.7617 32.8633C14.668 33.2148 13.444 33.3906 12.0898 33.3906ZM35.8008 28.1562V3H42.4219V33H36.4844L35.8008 28.1562ZM22.832 22.6875V22.2773C22.832 20.6758 23.0078 19.2174 23.3594 17.9023C23.7109 16.5742 24.2318 15.4349 24.9219 14.4844C25.612 13.5208 26.4714 12.7786 27.5 12.2578C28.5286 11.737 29.7135 11.4766 31.0547 11.4766C32.2526 11.4766 33.3008 11.7565 34.1992 12.3164C35.0977 12.8633 35.8659 13.6315 36.5039 14.6211C37.1419 15.6107 37.6628 16.7695 38.0664 18.0977C38.4701 19.4128 38.776 20.832 38.9844 22.3555V22.8438C38.776 24.276 38.4701 25.6302 38.0664 26.9062C37.6628 28.1693 37.1419 29.2891 36.5039 30.2656C35.8659 31.2422 35.0911 32.0104 34.1797 32.5703C33.2812 33.1172 32.2266 33.3906 31.0156 33.3906C29.6745 33.3906 28.4896 33.1237 27.4609 32.5898C26.4453 32.056 25.5924 31.3073 24.9023 30.3438C24.2253 29.3802 23.7109 28.2474 23.3594 26.9453C23.0078 25.6432 22.832 24.224 22.832 22.6875ZM29.4141 22.2773V22.6875C29.4141 23.4818 29.4661 24.2174 29.5703 24.8945C29.6745 25.5716 29.8503 26.1706 30.0977 26.6914C30.3581 27.1992 30.6966 27.5964 31.1133 27.8828C31.543 28.1693 32.0703 28.3125 32.6953 28.3125C33.5417 28.3125 34.2383 28.1107 34.7852 27.707C35.3451 27.3034 35.7552 26.7305 36.0156 25.9883C36.2891 25.2461 36.4062 24.3737 36.3672 23.3711V21.8281C36.3932 20.9688 36.3346 20.2135 36.1914 19.5625C36.0482 18.8984 35.8203 18.3451 35.5078 17.9023C35.2083 17.4596 34.8242 17.1276 34.3555 16.9062C33.8997 16.6719 33.3594 16.5547 32.7344 16.5547C32.1224 16.5547 31.6016 16.6979 31.1719 16.9844C30.7552 17.2708 30.4167 17.6745 30.1562 18.1953C29.8958 18.7031 29.707 19.3086 29.5898 20.0117C29.4727 20.7018 29.4141 21.457 29.4141 22.2773ZM58.4961 27.8633V11.8672H65.0977V33H58.9258L58.4961 27.8633ZM59.1211 23.5664L60.8398 23.5273C60.8398 24.9466 60.6706 26.2617 60.332 27.4727C59.9935 28.6706 59.4922 29.7122 58.8281 30.5977C58.1771 31.4831 57.3698 32.1732 56.4062 32.668C55.4557 33.1497 54.3555 33.3906 53.1055 33.3906C52.0638 33.3906 51.1068 33.2474 50.2344 32.9609C49.375 32.6615 48.6328 32.1992 48.0078 31.5742C47.3828 30.9362 46.8945 30.1224 46.543 29.1328C46.2044 28.1302 46.0352 26.9323 46.0352 25.5391V11.8672H52.6172V25.5781C52.6172 26.0469 52.6758 26.4505 52.793 26.7891C52.9102 27.1276 53.0794 27.4141 53.3008 27.6484C53.5221 27.8698 53.7956 28.0391 54.1211 28.1562C54.4596 28.2604 54.8438 28.3125 55.2734 28.3125C56.263 28.3125 57.0378 28.1042 57.5977 27.6875C58.1576 27.2708 58.5482 26.7044 58.7695 25.9883C59.0039 25.2721 59.1211 24.4648 59.1211 23.5664Z" fill="#6E41E2"/>
<path d="M13.1094 39.0938H17.8906V55.3438C17.8906 56.9062 17.5312 58.2292 16.8125 59.3125C16.0938 60.4062 15.0885 61.2344 13.7969 61.7969C12.5156 62.3698 11.0156 62.6562 9.29688 62.6562C8.53646 62.6562 7.76042 62.5573 6.96875 62.3594C6.17708 62.1719 5.4375 61.8906 4.75 61.5156C4.0625 61.1406 3.48438 60.6771 3.01562 60.125L5.21875 57.0312C5.64583 57.5104 6.18229 57.9167 6.82812 58.25C7.47396 58.5938 8.23438 58.7656 9.10938 58.7656C9.86979 58.7656 10.5052 58.6302 11.0156 58.3594C11.5365 58.0885 11.9323 57.6927 12.2031 57.1719C12.474 56.6615 12.6094 56.0417 12.6094 55.3125V43.0938L13.1094 39.0938ZM1.875 47.75V47.4219C1.875 46.1406 2.03125 44.974 2.34375 43.9219C2.66667 42.8594 3.125 41.9479 3.71875 41.1875C4.32292 40.4167 5.05208 39.8229 5.90625 39.4062C6.76042 38.9896 7.72396 38.7812 8.79688 38.7812C9.95312 38.7812 10.901 39.0052 11.6406 39.4531C12.3906 39.8906 12.9896 40.5052 13.4375 41.2969C13.8958 42.0885 14.25 43.0156 14.5 44.0781C14.7604 45.1302 14.9792 46.2656 15.1562 47.4844V47.875C14.9792 49.0208 14.7344 50.1042 14.4219 51.125C14.1198 52.1354 13.724 53.0312 13.2344 53.8125C12.7448 54.5938 12.1302 55.2083 11.3906 55.6562C10.6615 56.0938 9.78646 56.3125 8.76562 56.3125C7.70312 56.3125 6.74479 56.099 5.89062 55.6719C5.04688 55.2448 4.32292 54.6458 3.71875 53.875C3.125 53.1042 2.66667 52.1979 2.34375 51.1562C2.03125 50.1146 1.875 48.9792 1.875 47.75ZM7.14062 47.4219V47.75C7.14062 48.3854 7.19792 48.974 7.3125 49.5156C7.4375 50.0573 7.625 50.5365 7.875 50.9531C8.125 51.3594 8.43229 51.6771 8.79688 51.9062C9.17188 52.1354 9.60938 52.25 10.1094 52.25C10.8698 52.25 11.4844 52.0885 11.9531 51.7656C12.4219 51.4427 12.7604 50.9844 12.9688 50.3906C13.1771 49.7969 13.2656 49.099 13.2344 48.2969V47.0625C13.2552 46.375 13.2083 45.7708 13.0938 45.25C12.9792 44.7188 12.7969 44.276 12.5469 43.9219C12.3073 43.5677 11.9844 43.3021 11.5781 43.125C11.1823 42.9375 10.7031 42.8438 10.1406 42.8438C9.65104 42.8438 9.21875 42.9583 8.84375 43.1875C8.46875 43.4167 8.15625 43.7396 7.90625 44.1562C7.65625 44.5625 7.46354 45.0469 7.32812 45.6094C7.20312 46.1615 7.14062 46.7656 7.14062 47.4219ZM26.2344 43.2812V56H20.9688V39.0938H25.8906L26.2344 43.2812ZM31.2344 38.9688L31.1406 43.8594C30.9323 43.8385 30.651 43.8125 30.2969 43.7812C29.9427 43.75 29.6458 43.7344 29.4062 43.7344C28.7917 43.7344 28.2604 43.8073 27.8125 43.9531C27.375 44.0885 27.0104 44.2969 26.7188 44.5781C26.4375 44.849 26.2292 45.1927 26.0938 45.6094C25.9688 46.026 25.9115 46.5104 25.9219 47.0625L24.9688 46.4375C24.9688 45.3021 25.0781 44.2708 25.2969 43.3438C25.526 42.4062 25.849 41.599 26.2656 40.9219C26.6823 40.2344 27.1875 39.7083 27.7812 39.3438C28.375 38.9688 29.0417 38.7812 29.7812 38.7812C30.0417 38.7812 30.2969 38.7969 30.5469 38.8281C30.8073 38.8594 31.0365 38.9062 31.2344 38.9688ZM40.9219 56.3125C39.5469 56.3125 38.3177 56.099 37.2344 55.6719C36.151 55.2344 35.2344 54.6354 34.4844 53.875C33.7448 53.1146 33.1771 52.2396 32.7812 51.25C32.3958 50.2604 32.2031 49.2135 32.2031 48.1094V47.5156C32.2031 46.276 32.375 45.1302 32.7188 44.0781C33.0625 43.0156 33.5729 42.0885 34.25 41.2969C34.9271 40.5052 35.776 39.8906 36.7969 39.4531C37.8177 39.0052 39.0052 38.7812 40.3594 38.7812C41.5573 38.7812 42.6302 38.974 43.5781 39.3594C44.526 39.7448 45.3281 40.2969 45.9844 41.0156C46.651 41.7344 47.1562 42.6042 47.5 43.625C47.8542 44.6458 48.0312 45.7917 48.0312 47.0625V49.2031H34.2188V45.9062H42.8906V45.5C42.901 44.9375 42.8021 44.4583 42.5938 44.0625C42.3958 43.6667 42.1042 43.3646 41.7188 43.1562C41.3333 42.9479 40.8646 42.8438 40.3125 42.8438C39.7396 42.8438 39.2656 42.9688 38.8906 43.2188C38.526 43.4688 38.2396 43.8125 38.0312 44.25C37.8333 44.6771 37.6927 45.1719 37.6094 45.7344C37.526 46.2969 37.4844 46.8906 37.4844 47.5156V48.1094C37.4844 48.7344 37.5677 49.3021 37.7344 49.8125C37.9115 50.3229 38.1615 50.7604 38.4844 51.125C38.8177 51.4792 39.2135 51.7552 39.6719 51.9531C40.1406 52.151 40.6719 52.25 41.2656 52.25C41.9844 52.25 42.6927 52.1146 43.3906 51.8438C44.0885 51.5729 44.6875 51.125 45.1875 50.5L47.5781 53.3438C47.2344 53.8333 46.7448 54.3073 46.1094 54.7656C45.4844 55.224 44.7344 55.599 43.8594 55.8906C42.9844 56.1719 42.0052 56.3125 40.9219 56.3125ZM58.3594 56.3125C56.9844 56.3125 55.7552 56.099 54.6719 55.6719C53.5885 55.2344 52.6719 54.6354 51.9219 53.875C51.1823 53.1146 50.6146 52.2396 50.2188 51.25C49.8333 50.2604 49.6406 49.2135 49.6406 48.1094V47.5156C49.6406 46.276 49.8125 45.1302 50.1562 44.0781C50.5 43.0156 51.0104 42.0885 51.6875 41.2969C52.3646 40.5052 53.2135 39.8906 54.2344 39.4531C55.2552 39.0052 56.4427 38.7812 57.7969 38.7812C58.9948 38.7812 60.0677 38.974 61.0156 39.3594C61.9635 39.7448 62.7656 40.2969 63.4219 41.0156C64.0885 41.7344 64.5938 42.6042 64.9375 43.625C65.2917 44.6458 65.4688 45.7917 65.4688 47.0625V49.2031H51.6562V45.9062H60.3281V45.5C60.3385 44.9375 60.2396 44.4583 60.0312 44.0625C59.8333 43.6667 59.5417 43.3646 59.1562 43.1562C58.7708 42.9479 58.3021 42.8438 57.75 42.8438C57.1771 42.8438 56.7031 42.9688 56.3281 43.2188C55.9635 43.4688 55.6771 43.8125 55.4688 44.25C55.2708 44.6771 55.1302 45.1719 55.0469 45.7344C54.9635 46.2969 54.9219 46.8906 54.9219 47.5156V48.1094C54.9219 48.7344 55.0052 49.3021 55.1719 49.8125C55.349 50.3229 55.599 50.7604 55.9219 51.125C56.2552 51.4792 56.651 51.7552 57.1094 51.9531C57.5781 52.151 58.1094 52.25 58.7031 52.25C59.4219 52.25 60.1302 52.1146 60.8281 51.8438C61.526 51.5729 62.125 51.125 62.625 50.5L65.0156 53.3438C64.6719 53.8333 64.1823 54.3073 63.5469 54.7656C62.9219 55.224 62.1719 55.599 61.2969 55.8906C60.4219 56.1719 59.4427 56.3125 58.3594 56.3125Z" fill="#6E41E2"/>
</svg>
